<?xml version="1.0" encoding="UTF-8"?>
<svg id="Capa_2" data-name="Capa 2" xmlns="http://www.w3.org/2000/svg" viewBox="0 0 588.8 347.47">
  <defs>
    <style>
      .cls-1 {
        fill: #fff;
      }
    </style>
  </defs>
  <g id="Capa_1-2" data-name="Capa 1">
    <g>
      <path class="cls-1" d="M524.28,196.18c.15,15.53-15.16,27.21-30.22,23.79-10.17-2.31-19.16-11.07-19.39-21.65l-.94-42.86-43.21.36c-10.36.09-18.08-8.39-21.46-17.83-4-14.12,5.58-30.93,20.93-31.35l43.05-1.19-.14-43.27c-.04-10.67,9.41-18.77,18.78-21.47l10.46-.24c9.99,2.4,19.79,10.63,20.02,21.68l.91,42.66,42.11-.29c11.38-.08,19.78,8.86,23.09,19.43,3.13,14.99-7.97,30.14-23.71,30.44l-40.66.77.39,41.02Z"/>
      <path class="cls-1" d="M254.75,246.62l-50.19.81-5.02,25.11,66.6-.95c1.83.03,3.54,1.74,3.17,3.6l-5.28,26.3c-.41,2.02-2.33,3.88-4.62,3.92l-100.74,1.46c-.86.01-2.23-.55-2.64-1.03s-.71-1.92-.53-2.81l27.38-138.56c.51-2.58,2.47-4.2,5.04-4.24l98.6-1.43c1.96-.03,3.39,1.78,3.03,3.63l-5.2,26.51c-.48,2.42-2.69,3.91-5.16,3.95l-64.13.95-4.7,24.29,49.18-.65c.9-.01,2.3.44,2.81.9s.88,2.26.73,3.05l-4.26,21.16c-.28,1.4-2.04,4-4.06,4.03Z"/>
      <path class="cls-1" d="M176.95,160.39c.95-.01,2.05.42,2.32.87s.41,1.78-.35,3.09l-80.39,139.41c-1.77,3.08-4.18,4.04-6.93,4.08l-22.89.33c-2.43.03-4.57-1.35-5.08-4.05l-25.59-137.93c-.43-2.32,1.16-4.01,3.2-4.02l31.05-.27c1.98.34,3.71,1.58,4.04,3.78l13.01,88.19,47.38-88.74c1.44-2.69,3.95-4.06,6.74-4.26l33.47-.46Z"/>
      <path class="cls-1" d="M311.39,3.96l19.98-.33c2.47-.04,4.7,1.91,4.73,4.53l1.18,85.14c.33,24.06-12.15,46.04-34.94,54.74-24.32,9.29-55.59,5.57-73.12-14.92-8.64-10.1-13.83-22.66-14.05-36.24l-1.41-87.49c-.04-2.37,2.18-4.12,4.19-4.14l19.67-.25c2.71-.03,4.88,2.03,4.92,4.75l1.31,84.24c.13,8.18,3.11,15.76,8.08,21.78,11.66,14.12,37.39,13.66,48.74-.05,5.15-6.22,8.08-14.21,7.97-22.67l-1.11-84.47c-.03-2.08,1.4-4.6,3.87-4.64Z"/>
      <path class="cls-1" d="M29.87,100.48l.67,49.38c.03,2.08-1.66,3.94-3.69,3.97l-20.91.31c-2.24.03-3.92-1.45-3.95-3.94L0,12.45c-.03-2.34,1.75-4.06,3.92-4.09l57.22-.8c23.66-.33,43.27,19.35,45.02,42.81,1.9,25.58-17.19,49.24-44.3,49.63l-31.98.47ZM59.7,74.86c11.21-1.22,18.38-11.86,17.74-22.27s-8.54-20.07-19.17-19.99l-29.4.22.61,42.9c10.21-.45,19.87.27,30.21-.86Z"/>
      <path class="cls-1" d="M337.38,304.26l-29.77.46c-.68.01-2.07-.52-2.53-.96s-.74-2.02-.58-2.86l21.56-108.8-35.02.38c-2.07.02-3.37-1.28-3.37-3.35l5.2-26.53c.45-2.3,2.59-3.93,5.06-3.97l107.56-1.55c1.9-.03,3.25,1.88,2.92,3.55l-5.15,26.44c-.71,2.59-2.75,3.86-5.43,3.9l-34.58.52-21.59,108.87c-.38,1.9-2.21,3.88-4.29,3.91Z"/>
      <path class="cls-1" d="M211.88,128.73l.23,17.89c.03,2.43-1.66,4.64-4.36,4.68l-85.84,1.18c-2.42.03-4.13-1.39-4.17-3.96l-1.99-137.77c-.03-2.27,2.08-4.01,3.95-4.04l20.36-.32c1.5-.02,4.21,1.5,4.24,3.51l1.69,115.54,61.38-.89c2.48-.04,4.15,1.68,4.51,4.18Z"/>
      <path class="cls-1" d="M379.86,46.11c6.12,12.47,38.47,12.54,61.59,28.39,8.18,5.61,13.93,13.64,15.3,24.05l-30.73.6c-2.53-3.73-5.89-6.22-9.79-8.44-5.14-2.06-10.18-3.69-15.61-5.22-15.38-4.34-37.93-11.53-46.46-26.04-11.04-18.79-3.53-42.45,15.94-52.32,25.69-13.02,57.41-7.85,77.78,12.46,2.21,2.2,3.08,5.5,1.05,7.89-3.47,4.09-7.17,7.96-11.03,11.63-6.56,6.23-8.85-3.97-24.38-10.42-9.05-3.75-19.38-3.63-27.86,1.4-5.5,3.26-8.67,10.17-5.8,16.01Z"/>
      <path class="cls-1" d="M401.85,123.91c-1.14,10.22-.53,17.95,4.82,26.26-23.06,1.82-45.14-7.94-59.84-25.01-1.47-1.7-2.09-4.79-.7-6.37,4.17-4.74,8.51-8.79,13.41-12.62,1.92-1.5,4.51-1.65,6.28.04,9.27,8.81,22.87,16.94,36.03,17.7Z"/>
      <path class="cls-1" d="M155.26,345.53c-.6.46-3.2.62-4.01.07l-13.1-17.46.12,17.57c-.53.49-2.47.5-3.19.23l-.33-22.9c.99-.12,3.48-.13,4.07.54l12.89,16.94.03-17.73,3.18-.05.33,22.8Z"/>
      <path class="cls-1" d="M424.75,341.42c-.42.8-3.39,1.02-3.95.28l-13.14-17.45.12,17.52c-.39.67-2.67.68-3.18.08l-.34-22.63c1-.19,3.56-.28,4.12.45l12.86,16.96.02-17.76,3.19.03.31,22.51Z"/>
      <path class="cls-1" d="M479.49,341.13l-6.19-7.76c-.6-.75-3.13-.74-3.61-.24l-.12,7.78c-.2.7-2.74.67-3.11-.07l-.37-22.55c3.67-.16,7.26-.29,10.68.19s4.85,3.76,5.04,6.34c.25,3.29-1.09,6.1-4.64,7.7l6.66,8.45-4.33.16ZM475.61,329.62c2.22-.58,3.05-3.45,2.7-5.11-.32-1.51-2.15-3.52-3.76-3.53l-5.11-.03.09,9.22c1.9.06,3.81.04,6.08-.55Z"/>
      <path class="cls-1" d="M376.64,342.62l-6.19-7.76c-.6-.75-3.13-.75-3.62-.25l-.12,7.78c-.2.7-2.74.67-3.11-.07l-.37-22.55c3.67-.16,7.26-.29,10.68.19s4.85,3.76,5.04,6.34c.25,3.29-1.09,6.1-4.64,7.69l6.66,8.46-4.33.16ZM372.76,331.1c2.22-.58,3.05-3.45,2.7-5.11-.32-1.51-2.15-3.52-3.76-3.53l-5.11-.03.09,9.22c1.9.06,3.81.04,6.08-.55Z"/>
      <path class="cls-1" d="M521.09,331.65l-8.76.06-3.73,8.43c-.41.92-2.97.88-3.73.3l9.68-22.54c1.06-.41,2.91-.43,3.85-.04l10.35,22.36-3.54.31-4.13-8.89ZM519.71,328.87l-3.15-7.02-2.97,7.11,6.12-.09Z"/>
      <path class="cls-1" d="M450.14,332.68l-8.76.06-3.73,8.43c-.41.92-2.97.88-3.73.3l9.68-22.54c1.06-.41,2.91-.44,3.86-.03l10.35,22.35-3.53.31-4.13-8.88ZM448.75,329.9l-3.15-7.02-2.97,7.11,6.12-.09Z"/>
      <path class="cls-1" d="M226.19,335.9l-8.75.11-3.77,8.46c-.39.87-2.92.83-3.69.24l9.68-22.55c1.06-.4,2.91-.43,3.85-.03l10.35,22.35-3.53.31-4.14-8.9ZM224.81,333.13l-3.15-7.02-2.97,7.11,6.12-.09Z"/>
      <path class="cls-1" d="M196.36,341.34c1.92-1.46,3.84-2.38,6.07-1.62-1.96,4.11-6.2,6.06-10.7,6.08-7.07.03-12.3-5.45-12.24-12.08s5.54-11.96,12.58-11.75c4.29.13,8.23,1.9,10.21,5.84-2.38.51-4.39-.28-6.27-1.62-3.69-2.62-8.21-1.08-10.82,1.86-2.94,3.3-3,8.01-.1,11.5,2.53,3.04,7.36,4.78,11.29,1.81Z"/>
      <path class="cls-1" d="M80.49,343.01c1.92-1.46,3.84-2.38,6.07-1.62-1.96,4.11-6.2,6.06-10.7,6.08-7.07.03-12.3-5.45-12.24-12.08.06-6.65,5.54-11.96,12.58-11.75,4.29.13,8.23,1.9,10.21,5.84-2.38.51-4.39-.28-6.28-1.62-3.69-2.62-8.21-1.08-10.82,1.86-2.94,3.3-3,8.01-.1,11.5,2.53,3.04,7.36,4.78,11.29,1.81Z"/>
      <path class="cls-1" d="M275.47,321.59c.33-.81,3.03-.67,3.68-.31l-9.12,22.74c-1.04.15-2.67.19-3.76.1l-9.87-22.57c.84-.21,2.57-.22,3.66-.01l8.01,17.9,7.4-17.85Z"/>
      <path class="cls-1" d="M351.64,331.1l-9.6.34.05,9,10.32.07c.65,0,.66,2.56-.04,2.58l-13.47.23-.39-23.29,13.56-.12c.71.02.68,2.63.03,2.65l-10.14.27-.04,5.77,9.61-.05c.56,0,.66,2.53.11,2.55Z"/>
      <path class="cls-1" d="M301.51,331.82l-9.6.34.05,9,10.32.07c.65,0,.66,2.56-.04,2.58l-13.47.23-.39-23.29,13.57-.11c.69.01.67,2.63,0,2.65l-10.13.27-.04,5.77,9.61-.05c.56,0,.66,2.53.11,2.55Z"/>
      <path class="cls-1" d="M322.18,342.86c-.54.64-2.34.76-3.3.55l-.42-20.2h-6.64c-.72,0-1.15-2.68-.47-2.7l17.55-.31c.24,0,1.04,1.52.84,1.74-.29.34-1.15.99-1.59,1.01l-6.2.3.22,19.6Z"/>
      <path class="cls-1" d="M109.58,343.95c.84,0,.95,2.63.15,2.65l-13.01.22-.4-23.21,3.27-.06.31,20.41h9.67Z"/>
      <rect class="cls-1" x="390.1" y="319.29" width="3.26" height="23.27" transform="translate(-4.74 5.69) rotate(-.83)"/>
      <rect class="cls-1" x="166.17" y="322.52" width="3.26" height="23.27" transform="translate(-4.81 2.46) rotate(-.83)"/>
      <rect class="cls-1" x="119.95" y="323.19" width="3.26" height="23.27" transform="translate(-4.82 1.79) rotate(-.83)"/>
      <rect class="cls-1" x="492.96" y="317.8" width="3.26" height="23.27" transform="translate(-4.71 7.18) rotate(-.83)"/>
      <path class="cls-1" d="M122.04,320.12c-.62.87-3.1.88-3.96.44l2.73-4.13c.55-.83,3.04-.76,4.14-.33l-2.9,4.02Z"/>
    </g>
  </g>
</svg>