<svg xmlns="http://www.w3.org/2000/svg" viewBox="388 23 216 216">
  <defs>
    <linearGradient id="g" x1="0" y1="0" x2="1" y2="1">
      <stop offset="0%" stop-color="#22bcbd"/>
      <stop offset="100%" stop-color="#042827"/>
    </linearGradient>
  </defs>
  <rect x="388" y="23" width="216" height="216" fill="url(#g)"/>
  <path fill="white" d="M521.58,197.96c-.08,15.54-15.55,26.99-30.56,23.35-10.14-2.46-19-11.35-19.08-21.93l-.32-42.87-43.21-.26c-10.36-.06-17.96-8.65-21.2-18.14-3.79-14.17,6.03-30.84,21.39-31.05l43.06-.57.48-43.26c.12-10.67,9.68-18.63,19.09-21.2l10.46-.09c9.96,2.55,19.63,10.91,19.71,21.97l.29,42.67,42.11.31c11.38.09,19.65,9.14,22.81,19.76,2.91,15.03-8.41,30.02-24.15,30.09l-40.67.18-.21,41.02Z"/>
</svg>
