<?xml version="1.0" encoding="UTF-8"?>
<svg id="Capa_2" data-name="Capa 2" xmlns="http://www.w3.org/2000/svg" viewBox="0 0 587.06 342.76">
  <defs>
    <style>
      .cls-1 {
        fill: #22bcbd;
      }

      .cls-2 {
        fill: #ffa018;
      }

      .cls-3 {
        fill: #7f7f7f;
      }
    </style>
  </defs>
  <g id="Capa_1-2" data-name="Capa 1">
    <g>
      <path class="cls-1" d="M521.58,197.96c-.08,15.54-15.55,26.99-30.56,23.35-10.14-2.46-19-11.35-19.08-21.93l-.32-42.87-43.21-.26c-10.36-.06-17.96-8.65-21.2-18.14-3.79-14.17,6.03-30.84,21.39-31.05l43.06-.57.48-43.26c.12-10.67,9.68-18.63,19.09-21.2l10.46-.09c9.96,2.55,19.63,10.91,19.71,21.97l.29,42.67,42.11.31c11.38.09,19.65,9.14,22.81,19.76,2.91,15.03-8.41,30.02-24.15,30.09l-40.67.18-.21,41.02Z"/>
      <path class="cls-2" d="M251.35,244.5l-50.2.09-5.38,25.03h66.61c1.83.07,3.52,1.8,3.12,3.65l-5.66,26.22c-.43,2.01-2.38,3.85-4.67,3.85h-100.75c-.86,0-2.22-.58-2.62-1.07s-.68-1.93-.49-2.82l29.37-138.15c.55-2.58,2.53-4.16,5.1-4.16h98.61c1.96,0,3.37,1.83,2.98,3.67l-5.58,26.43c-.51,2.42-2.74,3.87-5.21,3.87l-64.14.02-5.05,24.22,49.18.06c.9,0,2.29.48,2.79.94s.85,2.28.68,3.06l-4.57,21.1c-.3,1.4-2.1,3.97-4.12,3.97Z"/>
      <path class="cls-2" d="M174.8,157.16c.95,0,2.04.45,2.31.91s.38,1.79-.39,3.08l-82.39,138.23c-1.82,3.05-4.23,3.98-6.98,3.98h-22.89c-2.43,0-4.55-1.42-5.02-4.13l-23.59-138.29c-.4-2.33,1.22-3.99,3.26-3.98l31.05.18c1.97.37,3.69,1.63,3.98,3.84l11.74,88.37,48.66-88.05c1.47-2.67,4.01-4.01,6.81-4.16l33.47.03Z"/>
      <path class="cls-1" d="M311.49,2.69l19.98-.04c2.47,0,4.67,1.97,4.67,4.6l-.05,85.14c-.01,24.06-12.81,45.86-35.73,54.23-24.46,8.93-55.66,4.76-72.9-15.97-8.5-10.22-13.51-22.86-13.53-36.44l-.14-87.5c0-2.37,2.24-4.08,4.25-4.08l19.67.04c2.71,0,4.85,2.1,4.85,4.82l.09,84.25c0,8.18,2.88,15.81,7.76,21.9,11.46,14.28,37.19,14.2,48.73.66,5.24-6.14,8.28-14.09,8.29-22.55l.11-84.47c0-2.08,1.46-4.58,3.93-4.58Z"/>
      <path class="cls-1" d="M28.6,95.13l-.04,49.39c0,2.08-1.72,3.91-3.75,3.91H3.9C1.66,148.45,0,146.93,0,144.44V6.68C0,4.34,1.81,2.64,3.98,2.64l57.23.03c23.66.01,42.99,19.98,44.4,43.46,1.53,25.6-17.9,48.98-45.02,48.99h-31.99ZM58.79,69.94c11.22-1.06,18.55-11.6,18.06-22.02-.46-9.93-8.25-20.19-18.88-20.27l-29.4-.2v42.9c10.21-.31,19.86.55,30.21-.42Z"/>
      <path class="cls-2" d="M333.14,303.33l-29.77.03c-.68,0-2.07-.54-2.52-.99s-.71-2.03-.54-2.87l23.13-108.48-35.02-.13c-2.07,0-3.35-1.33-3.32-3.4l5.58-26.45c.48-2.3,2.65-3.89,5.12-3.89h107.57c1.9,0,3.22,1.93,2.87,3.59l-5.53,26.36c-.75,2.58-2.8,3.82-5.49,3.82l-34.59.02-23.16,108.54c-.4,1.89-2.27,3.85-4.35,3.85Z"/>
      <path class="cls-1" d="M210.19,126l-.03,17.89c0,2.43-1.73,4.62-4.43,4.61l-85.85-.06c-2.42,0-4.11-1.45-4.11-4.02V6.65c0-2.27,2.14-3.98,4.01-3.98l20.36-.03c1.5,0,4.19,1.56,4.19,3.57l.02,115.55h61.39c2.48,0,4.13,1.73,4.45,4.24Z"/>
      <path class="cls-1" d="M379.34,45.82c5.94,12.56,38.29,13.1,61.17,29.27,8.1,5.73,13.73,13.84,14.96,24.27l-30.74.16c-2.48-3.77-5.8-6.3-9.67-8.58-5.11-2.14-10.13-3.84-15.53-5.45-15.32-4.56-37.76-12.08-46.08-26.7-10.77-18.95-2.92-42.49,16.7-52.08,25.88-12.65,57.52-7.02,77.59,13.58,2.18,2.23,3,5.54.93,7.91-3.53,4.04-7.29,7.86-11.2,11.47-6.65,6.14-8.79-4.1-24.23-10.77-8.99-3.88-19.33-3.91-27.88,1-5.54,3.18-8.81,10.04-6.03,15.93Z"/>
      <path class="cls-1" d="M400.2,123.93c-1.29,10.2-.78,17.94,4.44,26.33-23.09,1.49-45.02-8.59-59.47-25.87-1.44-1.72-2.02-4.82-.61-6.38,4.24-4.68,8.63-8.67,13.59-12.43,1.94-1.47,4.53-1.58,6.28.13,9.14,8.94,22.63,17.27,35.77,18.22Z"/>
      <path class="cls-3" d="M150.44,341.97c-.61.45-3.21.57-4.01,0l-12.84-17.65-.14,17.57c-.54.48-2.48.46-3.19.18v-22.9c.99-.11,3.48-.08,4.07.59l12.65,17.13.28-17.73h3.18s0,22.79,0,22.79Z"/>
      <path class="cls-3" d="M419.96,341.75c-.43.79-3.41.97-3.95.22l-12.89-17.64-.13,17.52c-.4.66-2.68.65-3.18.03l-.02-22.63c1-.17,3.57-.23,4.11.51l12.61,17.15.28-17.75,3.19.07-.02,22.51Z"/>
      <path class="cls-3" d="M474.7,342.25l-6.08-7.85c-.59-.76-3.12-.79-3.61-.29l-.23,7.78c-.21.69-2.75.63-3.11-.11l-.04-22.56c3.67-.11,7.26-.19,10.67.34s4.79,3.83,4.95,6.42c.2,3.29-1.18,6.08-4.75,7.63l6.53,8.55-4.33.1ZM470.98,330.68c2.23-.54,3.1-3.41,2.77-5.07-.3-1.51-2.1-3.55-3.71-3.59l-5.11-.11-.04,9.22c1.9.08,3.81.1,6.09-.46Z"/>
      <path class="cls-3" d="M371.83,342.25l-6.07-7.84c-.59-.76-3.12-.79-3.61-.3l-.23,7.78c-.21.69-2.75.63-3.11-.11l-.04-22.56c3.67-.11,7.26-.19,10.67.34,3.33.52,4.79,3.83,4.95,6.42.2,3.3-1.18,6.08-4.75,7.63l6.53,8.55-4.33.1ZM368.12,330.68c2.23-.54,3.1-3.41,2.77-5.07-.3-1.51-2.1-3.55-3.71-3.59l-5.11-.11-.04,9.22c1.9.08,3.81.1,6.09-.46Z"/>
      <path class="cls-3" d="M516.43,333.37l-8.76-.06-3.85,8.38c-.42.91-2.98.84-3.73.25l10-22.4c1.07-.39,2.92-.39,3.85.02l10.03,22.5-3.54.26-4-8.94ZM515.08,330.57l-3.05-7.06-3.07,7.06h6.12Z"/>
      <path class="cls-3" d="M445.47,333.37l-8.76-.06-3.85,8.38c-.42.91-2.98.84-3.73.25l10-22.4c1.06-.39,2.92-.39,3.86.02l10.03,22.5-3.54.26-4-8.94ZM444.12,330.57l-3.05-7.06-3.07,7.06h6.12Z"/>
      <path class="cls-3" d="M221.5,333.36l-8.75-.02-3.89,8.4c-.4.86-2.93.79-3.7.19l10-22.4c1.06-.39,2.92-.39,3.85.02l10.03,22.5-3.54.26-4.01-8.96ZM220.16,330.57l-3.05-7.06-3.07,7.06h6.12Z"/>
      <path class="cls-3" d="M191.6,338.37c1.94-1.43,3.88-2.32,6.09-1.53-2.02,4.08-6.29,5.97-10.79,5.93-7.07-.07-12.22-5.63-12.06-12.25s5.71-11.88,12.74-11.57c4.28.19,8.21,2.02,10.12,5.98-2.38.47-4.38-.35-6.25-1.71-3.65-2.67-8.19-1.19-10.85,1.7-2.99,3.26-3.11,7.97-.26,11.49,2.48,3.07,7.29,4.89,11.26,1.97Z"/>
      <path class="cls-3" d="M75.71,338.37c1.94-1.43,3.88-2.32,6.09-1.53-2.02,4.08-6.29,5.97-10.79,5.93-7.07-.07-12.22-5.63-12.06-12.25.16-6.65,5.71-11.88,12.74-11.57,4.29.19,8.21,2.02,10.12,5.98-2.39.47-4.38-.35-6.25-1.71-3.65-2.67-8.19-1.19-10.85,1.7-2.99,3.26-3.11,7.97-.26,11.49,2.48,3.07,7.29,4.89,11.26,1.97Z"/>
      <path class="cls-3" d="M270.98,319.76c.35-.8,3.04-.63,3.69-.25l-9.45,22.6c-1.04.14-2.67.15-3.76.04l-9.55-22.71c.84-.2,2.57-.18,3.66.04l7.75,18.01,7.66-17.74Z"/>
      <path class="cls-3" d="M347,330.37l-9.6.2-.08,9,10.31.22c.65.01.62,2.57-.08,2.57l-13.47.04-.05-23.29,13.56.08c.7.03.64,2.64,0,2.65l-10.14.13-.12,5.76,9.61.09c.56,0,.62,2.54.07,2.55Z"/>
      <path class="cls-3" d="M296.87,330.37l-9.6.2-.08,9,10.31.22c.65.01.62,2.57-.08,2.57l-13.47.04-.05-23.29,13.57.08c.69.02.63,2.64-.04,2.65l-10.13.13-.12,5.76,9.61.09c.56,0,.62,2.54.07,2.55Z"/>
      <path class="cls-3" d="M317.38,341.7c-.55.63-2.35.73-3.31.5l-.12-20.2-6.64-.09c-.72,0-1.11-2.71-.43-2.71l17.55-.05c.24,0,1.01,1.54.82,1.75-.3.33-1.16.97-1.6.98l-6.21.21-.06,19.6Z"/>
      <path class="cls-3" d="M104.78,339.72c.84.01.91,2.65.11,2.65l-13.01.03-.07-23.22h3.27s.02,20.4.02,20.4l9.67.14Z"/>
      <rect class="cls-3" x="385.46" y="319.14" width="3.26" height="23.27"/>
      <rect class="cls-3" x="161.51" y="319.14" width="3.26" height="23.27"/>
      <rect class="cls-3" x="115.28" y="319.14" width="3.26" height="23.27"/>
      <rect class="cls-3" x="488.33" y="319.14" width="3.26" height="23.27"/>
      <path class="cls-3" d="M117.59,316.07c-.64.86-3.11.84-3.97.38l2.79-4.09c.56-.82,3.05-.72,4.14-.27l-2.96,3.98Z"/>
    </g>
  </g>
</svg>