<?xml version="1.0" encoding="UTF-8"?>
<svg id="Capa_2" data-name="Capa 2" xmlns="http://www.w3.org/2000/svg" viewBox="0 0 865.36 197.97">
  <defs>
    <style>
      .cls-1 {
        fill: #22bcbd;
      }

      .cls-2 {
        fill: #ffa018;
      }

      .cls-3 {
        fill: #7f7f7f;
      }
    </style>
  </defs>
  <g id="Capa_1-2" data-name="Capa 1">
    <g>
      <path class="cls-1" d="M443.83,137.96l-.4-37.24h-35.51c-11.67.02-20.68-9.76-21.24-20.76-.58-11.36,7.96-22.5,19.83-22.67l20.82-.3c5.27-.08,10.29-.19,16.08-.07l.41-36.79c.13-11.41,10.47-19.91,21.23-20.13s21.87,7.82,21.96,19.21l.28,37.56,34.1.1c12.22.04,22.27,8.69,23.05,20.88.76,11.71-8.57,22.94-21,23l-36,.18-.16,36.2c-.05,11.57-10.12,20.38-21.1,20.68-11.06.3-22.22-7.8-22.35-19.84Z"/>
      <path class="cls-2" d="M728.32,100.45h-42.71s-4.76,21.93-4.76,21.93l58.34.03c1.42,0,3,1.65,2.71,2.98l-4.97,23.14c-.41,1.91-2.14,3.41-4.27,3.41h-88.03c-1.87,0-3.09-1.44-2.7-3.28l25.7-121.01c.5-2.38,2.2-3.75,4.61-3.75h86.27c1.47,0,2.84,1.62,2.55,2.95l-4.94,23.44c-.41,1.93-2.19,3.19-4.14,3.38h-56.48s-4.51,21.19-4.51,21.19l43.48.08c1.68,0,3,1.73,2.68,3.22l-4,18.51c-.48,2.21-2.16,3.69-4.84,3.78Z"/>
      <path class="cls-2" d="M665.09,26.73l-72.57,121.86c-1.36,2.29-3.65,3.36-6.07,3.36h-20.11c-1.99-.01-3.9-1.35-4.26-3.5l-11.29-67.05c-.89-5.27-.08-10.32-2.74-15.19l-6.64-39.08c-.1-.6.17-1.81.46-2.28.35-.57,1.94-1.12,2.71-1.11l26.57.17c1.87.14,3.5,1.34,3.77,3.37l10.26,77.49,42.67-77.39c1.28-2.33,3.58-3.39,6.14-3.49l29.36.04c.37,0,1.25.38,1.55.55s.46,1.8.18,2.26Z"/>
      <path class="cls-1" d="M272.78,23.96l17.44-.02c2.29,0,4.06,1.8,4.06,4.13l-.07,75.67c-.02,20.56-11.73,39.58-31.45,46.73-27.01,9.8-60.3,1.15-71.67-27.5-2.51-6.32-3.9-12.8-3.9-19.83l-.03-75.64c0-2.03,1.92-3.57,3.62-3.57l17.16.02c2.51,0,4.39,1.83,4.39,4.37l.09,74.23c0,7.16,2.69,13.86,7.02,19.12,10.14,12.3,32.77,12.15,42.75-.06,4.28-5.24,6.93-11.94,6.94-19.05l.1-74.45c0-1.91,1.29-4.14,3.55-4.15Z"/>
      <path class="cls-1" d="M380.24,145.41c-9.93,6.18-20.88,8.59-32.53,8.24-17.6-.53-33.88-8.88-45.33-22-1.5-1.72-2.56-4.83-.97-6.64,3.54-4.02,7.41-7.43,11.63-10.69,1.67-1.29,3.97-1.46,5.49.02,11.89,11.58,30.71,21.88,46.61,11.58,5.54-3.59,8.51-10.23,6.2-16.5-2.47-6.71-13.65-10.26-19.94-12.14-13.81-4.12-34.39-10.59-42.12-23.64-9.89-16.7-2.98-37.82,14.5-46.29,22.67-10.99,50.21-6.04,67.76,12,2.06,2.11,2.6,5.08.64,7.27-3.14,3.52-6.44,6.87-9.88,10.03-5.28,4.83-7.88-3.72-20.19-9.36-8.07-3.7-17.32-3.9-25.09.53-4.89,2.79-7.79,8.83-5.33,14.04,1.58,3.35,5.25,5.62,8.64,7.09,13.43,5.82,27.49,7.86,40.51,15.76.26,1.25.48,3.19.91,3.99,5.61,10.46,5.17,9.71,15.9,16.61,3.4,15.57-3.38,31.39-17.4,40.12Z"/>
      <path class="cls-1" d="M25.06,105.6l-.04,42.79c0,2.01-1.49,3.44-3.39,3.56H3.37C1.41,151.93,0,150.44,0,148.3V27.56c0-2.04,1.48-3.63,3.42-3.63h49.9c21.92,0,38.85,18.81,39.25,40.24.24,12.72-5.31,24.81-15.26,32.93-6.97,5.53-15.02,8.48-23.96,8.49l-28.28.02ZM51.74,83.43c9.72-1.04,15.9-10.3,15.62-19.25s-6.98-17.64-16.36-18.23c-8.75-.56-17.07-.14-25.95-.22v38.12c9.02-.32,17.55.56,26.7-.42Z"/>
      <path class="cls-2" d="M800.94,151.94h-25.95c-1.28-.01-2.71-1.51-2.39-3.03l20.3-95.35-30.85-.12c-.58,0-1.97-.56-2.25-1.04s-.49-1.69-.38-2.25l4.83-22.94c.39-1.85,2.29-3.31,4.36-3.31h93.92c.77,0,2.06.52,2.35.98s.55,1.74.43,2.32l-4.77,22.78c-.64,2.49-2.53,3.5-5.02,3.5h-30.09s-20.23,94.93-20.23,94.93c-.46,2.14-2.25,3.53-4.28,3.53Z"/>
      <path class="cls-1" d="M183.67,131.77l-.06,16.6c0,1.98-1.85,3.62-3.94,3.62h-75.15c-2.18,0-3.57-1.45-3.57-3.65V27.56c0-1.98,1.77-3.61,3.48-3.61l17.74-.02c2.04,0,3.8,1.59,3.8,3.82v100.71s53.71,0,53.71,0c2.03,0,3.45,1.35,3.98,3.32Z"/>
      <path class="cls-3" d="M258.14,197.24c-1.13.25-2.88.3-4.3.19l-14.75-20.32-.08,20.39-3.63-.04v-25.54c1.59-.17,3.41-.14,4.55.22l14.37,19.55.24-19.38c.49-.55,2.14-.58,3.56-.4l.05,25.32Z"/>
      <path class="cls-3" d="M560.22,197.24c-1.13.25-2.88.31-4.3.19l-14.75-20.32-.08,20.39-3.63-.04v-25.54c1.59-.17,3.41-.14,4.55.22l14.37,19.55.24-19.38c.49-.55,2.14-.58,3.56-.39l.05,25.32Z"/>
      <path class="cls-3" d="M621.75,197.5l-7.21-9.06c-.57-.72-2.9-.55-3.98-.42l-.15,9.34c-.79.2-2.69.14-3.61-.12v-25.44s10.14,0,10.14,0c4.97,0,7.79,4.32,7.38,8.94-.3,3.36-2.01,5.68-5.39,6.99l7.43,9.65-4.6.14ZM617.48,184.52c2.45-.69,3.23-3.39,3.08-5.27-.13-1.56-1.61-4.19-3.62-4.34-2.28-.18-4.14-.2-6.46-.23v10.25c2.34.07,4.81.22,7-.4Z"/>
      <path class="cls-3" d="M506.56,197.5l-7.18-9.03c-.61-.77-2.93-.59-4.01-.45l-.15,9.33c-.78.21-2.7.15-3.61-.12v-25.44s10.14,0,10.14,0c4.97,0,7.79,4.32,7.38,8.94-.3,3.36-2.01,5.68-5.39,6.99l7.43,9.65-4.61.14ZM502.29,184.52c2.45-.69,3.23-3.39,3.08-5.27-.13-1.56-1.61-4.19-3.62-4.34-2.28-.18-4.14-.2-6.46-.23v10.25c2.34.07,4.81.22,7-.4Z"/>
      <path class="cls-3" d="M668.82,187.51l-9.94-.07-4.42,9.73c-.99.48-2.77.45-4.05.06l11.17-24.85c.45-.99,3.53-.8,4.41-.09l11.19,24.95c-1.34.22-2.83.27-3.97.15l-4.4-9.89ZM667.43,184.48l-3.59-7.78-3.71,7.79h7.3Z"/>
      <path class="cls-3" d="M588.89,187.51l-9.94-.07-4.42,9.73c-.99.48-2.77.45-4.05.06l11.18-24.85c.45-.99,3.53-.81,4.4-.09l11.19,24.95c-1.34.22-2.83.27-3.97.15l-4.4-9.89ZM587.51,184.48l-3.59-7.78-3.71,7.79h7.3Z"/>
      <path class="cls-3" d="M337.95,187.51l-9.94-.07-4.42,9.73c-.99.48-2.77.45-4.05.06l11.18-24.85c.45-.99,3.53-.81,4.4-.09l11.19,24.95c-1.34.22-2.83.27-3.97.15l-4.4-9.89ZM336.56,184.48l-3.59-7.78-3.71,7.79h7.29Z"/>
      <path class="cls-3" d="M304.25,193.18c2.09-1.48,3.86-2.96,6.73-1.7-2.51,4.39-6.96,6.51-11.99,6.49-7.7-.03-13.64-5.99-13.62-13.43.02-7.55,6.32-13.42,14.24-13.15,4.66.16,8.84,2.21,11.22,6.24-2.61,1.2-4.59-.04-6.55-1.47-4.17-3.04-9.44-1.55-12.48,1.8-3.37,3.72-3.44,8.84-.56,12.69,2.93,3.92,8.46,5.76,13.02,2.53Z"/>
      <path class="cls-3" d="M174.36,193.18c2.09-1.48,3.86-2.97,6.73-1.7-2.51,4.39-6.96,6.51-11.99,6.49-7.7-.03-13.64-5.99-13.62-13.43.03-7.55,6.32-13.42,14.24-13.15,4.66.16,8.84,2.21,11.22,6.24-2.61,1.2-4.59-.04-6.55-1.47-4.17-3.04-9.44-1.55-12.48,1.8-3.37,3.72-3.44,8.84-.56,12.69,2.93,3.91,8.46,5.76,13.02,2.54Z"/>
      <path class="cls-3" d="M393.16,172.3c.34-.8,3.23-.6,4-.22l-10.51,25.09c-1.18.46-3.03.49-4.23.04l-10.49-24.98c.88-.52,2.72-.55,3.94-.15l8.65,20.43,8.63-20.21Z"/>
      <path class="cls-3" d="M478.95,184.21l-11.29.03.05,10.32,11.6.16c.65.26.67,2.5.03,2.87l-15.34-.07v-25.76s15.37,0,15.37,0c.5.46.54,2.5.06,2.88l-11.71.09-.06,6.56h11.25s.04,2.91.04,2.91Z"/>
      <path class="cls-3" d="M422.53,184.21l-11.29.03.05,10.32,11.6.16c.65.26.66,2.5.03,2.87l-15.34-.07v-25.76s15.36,0,15.36,0c.56.41.6,2.59-.02,2.87l-11.61.1-.08,6.56h11.26s.04,2.91.04,2.91Z"/>
      <path class="cls-3" d="M445.6,197.12c-.77.28-1.99.38-3.59.42l-.1-22.77-8.34-.16c-.1-.44-.04-2.03.12-2.85h19.8c.68.01.79,2.48.35,2.82l-8.24.24v22.3Z"/>
      <path class="cls-3" d="M207.31,194.66c.74,0,.78,2.89.05,2.89l-14.86.03-.03-25.64,3.67-.07.05,22.74,11.13.05Z"/>
      <rect class="cls-3" x="521.58" y="171.75" width="3.68" height="25.85"/>
      <rect class="cls-3" x="270.64" y="171.75" width="3.68" height="25.85"/>
      <rect class="cls-3" x="218.92" y="171.75" width="3.68" height="25.85"/>
      <rect class="cls-3" x="636.77" y="171.75" width="3.68" height="25.85"/>
      <path class="cls-3" d="M221.16,168.81l-4.19.04,3.29-4.69c.7-.99,3.4-.91,4.71-.66l-3.8,5.31Z"/>
    </g>
  </g>
</svg>